<svg xmlns="http://www.w3.org/2000/svg" xmlns:xlink="http://www.w3.org/1999/xlink" width="200" zoomAndPan="magnify" viewBox="0 0 150 149.999998" height="200" preserveAspectRatio="xMidYMid meet" version="1.0"><defs><clipPath id="2b1a8b5899"><path d="M 54 1.3125 L 148 1.3125 L 148 95 L 54 95 Z M 54 1.3125 " clip-rule="nonzero"/></clipPath></defs><path fill="#b5e5c8" d="M 102.613281 116.609375 L 71.59375 101.546875 C 68.210938 99.9375 64.160156 101.09375 62.144531 104.25 L 55.046875 115.527344 C 54.386719 116.597656 53.027344 117 51.886719 116.464844 C 47.722656 114.375 43.875 111.703125 40.46875 108.53125 C 37.25 105.101562 34.546875 101.222656 32.433594 97.023438 C 31.875 95.878906 32.273438 94.5 33.355469 93.828125 L 44.652344 86.722656 C 47.800781 84.695312 48.949219 80.644531 47.328125 77.265625 L 32.265625 46.261719 C 31.410156 44.492188 29.878906 43.136719 28.011719 42.515625 C 26.125 41.875 24.058594 42.023438 22.277344 42.925781 C 20.015625 44.050781 0.1875 54.328125 0.1875 67.632812 L 0.1875 70.085938 C 0.925781 113.1875 35.6875 147.945312 78.785156 148.6875 L 81.242188 148.6875 C 94.542969 148.6875 104.824219 128.859375 105.933594 126.609375 C 106.84375 124.828125 106.996094 122.757812 106.355469 120.863281 C 105.730469 119 104.382812 117.464844 102.613281 116.609375 Z M 69.453125 105.96875 L 100.453125 121.027344 C 101.035156 121.308594 101.484375 121.816406 101.691406 122.433594 C 101.90625 123.082031 101.851562 123.792969 101.539062 124.398438 C 101.191406 125.097656 100.785156 125.851562 100.351562 126.628906 L 64.820312 109.214844 L 66.292969 106.878906 C 66.972656 105.832031 68.320312 105.445312 69.453125 105.96875 Z M 24.480469 47.324219 C 24.839844 47.140625 25.238281 47.042969 25.640625 47.042969 C 25.910156 47.042969 26.183594 47.085938 26.441406 47.175781 C 27.054688 47.378906 27.5625 47.820312 27.847656 48.402344 L 42.894531 79.386719 C 43.441406 80.519531 43.058594 81.875 42.007812 82.5625 L 39.660156 84.035156 L 22.242188 48.515625 C 23.03125 48.078125 23.777344 47.675781 24.480469 47.324219 Z M 81.242188 143.773438 L 78.785156 143.773438 C 38.402344 143.035156 5.839844 110.472656 5.097656 70.085938 L 5.097656 67.632812 C 5.097656 61.449219 11.679688 55.332031 18.03125 51.089844 L 35.472656 86.6875 L 30.722656 89.675781 C 27.519531 91.6875 26.351562 95.796875 28.019531 99.191406 C 30.375 103.867188 33.394531 108.179688 36.984375 111.988281 C 40.773438 115.539062 45.054688 118.527344 49.695312 120.851562 C 53.089844 122.515625 57.191406 121.34375 59.191406 118.136719 L 62.179688 113.394531 L 97.773438 130.832031 C 93.546875 137.191406 87.421875 143.773438 81.242188 143.773438 Z M 81.242188 143.773438 " fill-opacity="1" fill-rule="nonzero"/><g clip-path="url(#2b1a8b5899)"><path fill="#b5e5c8" d="M 100.894531 1.3125 C 84.042969 1.300781 68.496094 10.382812 60.226562 25.0625 C 51.957031 39.746094 52.25 57.746094 60.996094 72.148438 L 56.753906 89.144531 C 56.546875 89.980469 56.789062 90.863281 57.398438 91.472656 C 58.011719 92.082031 58.894531 92.328125 59.730469 92.121094 L 76.722656 87.878906 C 89.207031 95.453125 104.515625 96.75 118.097656 91.378906 C 131.675781 86.011719 141.957031 74.59375 145.882812 60.53125 C 149.8125 46.46875 146.929688 31.375 138.09375 19.75 C 129.261719 8.121094 115.496094 1.300781 100.894531 1.3125 Z M 100.894531 89.738281 C 92.945312 89.746094 85.160156 87.464844 78.46875 83.175781 C 77.898438 82.808594 77.203125 82.695312 76.546875 82.859375 L 62.511719 86.363281 L 66.015625 72.328125 C 66.175781 71.671875 66.0625 70.976562 65.699219 70.40625 C 55.46875 54.328125 57.429688 33.355469 70.464844 19.453125 C 83.5 5.550781 104.300781 2.242188 121.003906 11.417969 C 137.710938 20.59375 146.078125 39.921875 141.339844 58.382812 C 136.597656 76.84375 119.953125 89.746094 100.894531 89.738281 Z M 100.894531 89.738281 " fill-opacity="1" fill-rule="nonzero"/></g><path fill="#b5e5c8" d="M 80.753906 48.964844 C 82.792969 47.429688 83.898438 44.949219 83.667969 42.40625 C 83.441406 39.863281 81.910156 37.621094 79.625 36.476562 C 77.339844 35.335938 74.628906 35.457031 72.457031 36.800781 C 70.285156 38.144531 68.960938 40.515625 68.960938 43.070312 C 68.960938 44.425781 70.0625 45.523438 71.417969 45.523438 C 72.773438 45.523438 73.875 44.425781 73.875 43.070312 C 73.875 42.21875 74.316406 41.425781 75.039062 40.980469 C 75.761719 40.53125 76.667969 40.492188 77.429688 40.871094 C 78.191406 41.253906 78.699219 42 78.777344 42.847656 C 78.855469 43.695312 78.484375 44.523438 77.804688 45.035156 L 71.910156 49.457031 C 70.058594 50.851562 68.96875 53.03125 68.960938 55.351562 L 68.960938 57.804688 C 68.960938 59.164062 70.0625 60.261719 71.417969 60.261719 L 81.242188 60.261719 C 82.597656 60.261719 83.699219 59.164062 83.699219 57.804688 C 83.699219 56.449219 82.597656 55.351562 81.242188 55.351562 L 73.875 55.351562 C 73.875 54.578125 74.238281 53.847656 74.855469 53.382812 Z M 80.753906 48.964844 " fill-opacity="1" fill-rule="nonzero"/><path fill="#b5e5c8" d="M 132.386719 36.753906 C 131.925781 36.09375 131.175781 35.699219 130.367188 35.699219 L 120.542969 35.699219 C 119.1875 35.699219 118.085938 36.800781 118.085938 38.15625 C 118.085938 39.511719 119.1875 40.613281 120.542969 40.613281 L 126.824219 40.613281 L 120.699219 56.945312 C 120.46875 57.554688 120.492188 58.230469 120.761719 58.824219 C 121.03125 59.417969 121.523438 59.878906 122.132812 60.105469 C 122.414062 60.210938 122.703125 60.261719 123 60.261719 C 124.023438 60.261719 124.941406 59.628906 125.300781 58.667969 L 132.667969 39.019531 C 132.953125 38.261719 132.847656 37.417969 132.386719 36.753906 Z M 132.386719 36.753906 " fill-opacity="1" fill-rule="nonzero"/><path fill="#b5e5c8" d="M 116.304688 28.425781 C 115 28.054688 113.640625 28.808594 113.265625 30.113281 L 103.441406 64.5 C 103.265625 65.125 103.339844 65.796875 103.65625 66.367188 C 103.976562 66.9375 104.503906 67.359375 105.132812 67.535156 C 105.351562 67.597656 105.578125 67.632812 105.804688 67.632812 C 106.902344 67.632812 107.863281 66.902344 108.164062 65.851562 L 117.992188 31.460938 C 118.363281 30.160156 117.605469 28.800781 116.304688 28.425781 Z M 116.304688 28.425781 " fill-opacity="1" fill-rule="nonzero"/><path fill="#b5e5c8" d="M 100.894531 50.4375 L 98.4375 50.4375 L 98.4375 38.15625 C 98.4375 37.074219 97.726562 36.117188 96.691406 35.804688 C 95.65625 35.492188 94.539062 35.890625 93.9375 36.792969 L 84.113281 51.53125 C 83.609375 52.285156 83.5625 53.253906 83.988281 54.054688 C 84.417969 54.851562 85.25 55.351562 86.15625 55.351562 L 93.523438 55.351562 L 93.523438 57.804688 C 93.523438 59.164062 94.625 60.261719 95.980469 60.261719 C 97.335938 60.261719 98.4375 59.164062 98.4375 57.804688 L 98.4375 55.351562 L 100.894531 55.351562 C 102.25 55.351562 103.347656 54.25 103.347656 52.894531 C 103.347656 51.539062 102.25 50.4375 100.894531 50.4375 Z M 93.523438 50.4375 L 90.742188 50.4375 L 93.523438 46.261719 Z M 93.523438 50.4375 " fill-opacity="1" fill-rule="nonzero"/></svg>