<svg xmlns="http://www.w3.org/2000/svg" xmlns:xlink="http://www.w3.org/1999/xlink" width="200" zoomAndPan="magnify" viewBox="0 0 150 149.999998" height="200" preserveAspectRatio="xMidYMid meet" version="1.0"><defs><clipPath id="215a64db21"><path d="M 23.4375 21 L 126.9375 21 L 126.9375 150 L 23.4375 150 Z M 23.4375 21 " clip-rule="nonzero"/></clipPath></defs><g clip-path="url(#215a64db21)"><path fill="#b5e5c8" d="M 90.308594 150.003906 C 80.617188 150.003906 71.511719 146.234375 64.660156 139.382812 L 27.601562 102.320312 C 24.925781 99.644531 23.449219 96.085938 23.449219 92.296875 C 23.449219 84.484375 29.808594 78.125 37.625 78.125 C 41.410156 78.125 44.96875 79.597656 47.648438 82.273438 L 54.703125 89.332031 L 54.703125 34.375 C 54.703125 27.476562 60.308594 21.871094 67.203125 21.871094 C 74.101562 21.871094 79.707031 27.476562 79.707031 34.375 L 79.707031 69.3125 L 114.023438 76.175781 C 121.300781 77.632812 126.582031 84.078125 126.582031 91.496094 L 126.582031 113.730469 C 126.582031 133.730469 110.3125 150.003906 90.3125 150.003906 Z M 37.625 84.378906 C 33.253906 84.378906 29.699219 87.933594 29.699219 92.300781 C 29.699219 94.421875 30.523438 96.410156 32.019531 97.90625 L 69.078125 134.964844 C 74.75 140.632812 82.289062 143.757812 90.308594 143.757812 C 106.863281 143.757812 120.332031 130.289062 120.332031 113.738281 L 120.332031 91.503906 C 120.332031 87.046875 117.15625 83.179688 112.792969 82.304688 L 73.453125 74.441406 L 73.453125 34.375 C 73.453125 30.929688 70.648438 28.125 67.203125 28.125 C 63.757812 28.125 60.953125 30.929688 60.953125 34.375 L 60.953125 104.421875 L 43.226562 86.699219 C 41.730469 85.203125 39.742188 84.378906 37.625 84.378906 Z M 37.625 84.378906 " fill-opacity="1" fill-rule="nonzero"/></g><path fill="#b5e5c8" d="M 92.957031 57.148438 L 88.273438 53.003906 C 92.820312 47.863281 95.328125 41.25 95.328125 34.378906 C 95.328125 18.867188 82.710938 6.253906 67.203125 6.253906 C 51.691406 6.253906 39.078125 18.867188 39.078125 34.378906 C 39.078125 41.25 41.582031 47.867188 46.132812 53.003906 L 41.449219 57.148438 C 35.886719 50.863281 32.828125 42.777344 32.828125 34.378906 C 32.824219 15.421875 48.246094 0 67.199219 0 C 86.15625 0 101.574219 15.421875 101.574219 34.375 C 101.574219 42.773438 98.515625 50.863281 92.953125 57.144531 Z M 92.957031 57.148438 " fill-opacity="1" fill-rule="nonzero"/></svg>