<svg xmlns="http://www.w3.org/2000/svg" xmlns:xlink="http://www.w3.org/1999/xlink" width="200" zoomAndPan="magnify" viewBox="0 0 150 149.999998" height="200" preserveAspectRatio="xMidYMid meet" version="1.0"><defs><clipPath id="fc34340c6f"><path d="M 0 64 L 58 64 L 58 149.90625 L 0 149.90625 Z M 0 64 " clip-rule="nonzero"/></clipPath><clipPath id="c0d71e5a67"><path d="M 92 64 L 150 64 L 150 149.90625 L 92 149.90625 Z M 92 64 " clip-rule="nonzero"/></clipPath></defs><path fill="#b5e5c8" d="M 75.015625 58.867188 C 67.632812 58.867188 61.621094 52.859375 61.621094 45.472656 L 61.621094 40.117188 C 61.621094 32.730469 67.632812 26.71875 75.015625 26.71875 C 82.402344 26.71875 88.410156 32.730469 88.410156 40.117188 L 88.410156 45.472656 C 88.410156 52.859375 82.402344 58.867188 75.015625 58.867188 Z M 75.015625 32.082031 C 70.585938 32.082031 66.980469 35.6875 66.980469 40.117188 L 66.980469 45.476562 C 66.980469 49.910156 70.585938 53.515625 75.015625 53.515625 C 79.449219 53.515625 83.054688 49.910156 83.054688 45.476562 L 83.054688 40.117188 C 83.054688 35.6875 79.449219 32.082031 75.015625 32.082031 Z M 75.015625 32.082031 " fill-opacity="1" fill-rule="nonzero"/><path fill="#b5e5c8" d="M 101.808594 94.550781 L 96.449219 94.550781 L 96.449219 80.300781 C 96.449219 68.484375 86.835938 58.867188 75.019531 58.867188 C 63.203125 58.867188 53.589844 68.484375 53.589844 80.300781 L 53.589844 94.550781 L 48.230469 94.550781 L 48.230469 80.300781 C 48.230469 65.527344 60.25 53.511719 75.019531 53.511719 C 89.789062 53.511719 101.808594 65.53125 101.808594 80.300781 Z M 101.808594 94.550781 " fill-opacity="1" fill-rule="nonzero"/><path fill="#b5e5c8" d="M 45.550781 37.4375 C 38.164062 37.4375 32.152344 31.425781 32.152344 24.039062 L 32.152344 18.683594 C 32.152344 11.296875 38.164062 5.289062 45.550781 5.289062 C 52.933594 5.289062 58.945312 11.296875 58.945312 18.683594 L 58.945312 24.039062 C 58.945312 31.425781 52.933594 37.4375 45.550781 37.4375 Z M 45.550781 10.648438 C 41.117188 10.648438 37.511719 14.253906 37.511719 18.6875 L 37.511719 24.042969 C 37.511719 28.476562 41.117188 32.082031 45.550781 32.082031 C 49.980469 32.082031 53.585938 28.476562 53.585938 24.042969 L 53.585938 18.6875 C 53.585938 14.253906 49.980469 10.648438 45.550781 10.648438 Z M 45.550781 10.648438 " fill-opacity="1" fill-rule="nonzero"/><path fill="#b5e5c8" d="M 24.117188 80.457031 L 18.761719 80.457031 L 18.761719 58.867188 C 18.761719 44.09375 30.78125 32.078125 45.550781 32.078125 C 53.675781 32.078125 61.269531 35.703125 66.386719 42.027344 L 62.21875 45.394531 C 58.125 40.335938 52.046875 37.4375 45.550781 37.4375 C 33.734375 37.4375 24.117188 47.050781 24.117188 58.867188 Z M 24.117188 80.457031 " fill-opacity="1" fill-rule="nonzero"/><path fill="#b5e5c8" d="M 107.164062 32.078125 C 99.777344 32.078125 93.769531 26.070312 93.769531 18.683594 L 93.769531 13.324219 C 93.769531 5.941406 99.777344 -0.0703125 107.164062 -0.0703125 C 114.550781 -0.0703125 120.558594 5.941406 120.558594 13.324219 L 120.558594 18.683594 C 120.558594 26.070312 114.550781 32.078125 107.164062 32.078125 Z M 107.164062 5.289062 C 102.730469 5.289062 99.128906 8.894531 99.128906 13.328125 L 99.128906 18.6875 C 99.128906 23.117188 102.730469 26.722656 107.164062 26.722656 C 111.597656 26.722656 115.203125 23.117188 115.203125 18.6875 L 115.203125 13.328125 C 115.203125 8.894531 111.597656 5.289062 107.164062 5.289062 Z M 107.164062 5.289062 " fill-opacity="1" fill-rule="nonzero"/><path fill="#b5e5c8" d="M 133.953125 76.113281 L 128.59375 76.113281 L 128.59375 53.511719 C 128.59375 41.695312 118.980469 32.082031 107.164062 32.082031 C 99.113281 32.082031 91.8125 36.527344 88.113281 43.683594 L 83.351562 41.226562 C 87.976562 32.277344 97.097656 26.722656 107.164062 26.722656 C 121.9375 26.722656 133.953125 38.738281 133.953125 53.507812 Z M 133.953125 76.113281 " fill-opacity="1" fill-rule="nonzero"/><g clip-path="url(#fc34340c6f)"><path fill="#b5e5c8" d="M 51.824219 150.101562 L 49.640625 137.132812 C 48.890625 132.683594 46.285156 128.726562 42.492188 126.285156 L 18.308594 110.714844 C 16.683594 109.660156 15.371094 108.171875 14.511719 106.402344 L 0.921875 77.582031 C 0.316406 76.300781 0.0117188 74.960938 0.0117188 73.597656 C 0.0117188 68.429688 4.21875 64.222656 9.386719 64.222656 C 12.695312 64.222656 15.796875 66.019531 17.476562 68.914062 L 35.171875 97.644531 L 30.609375 100.453125 L 12.878906 71.664062 C 12.105469 70.339844 10.808594 69.582031 9.378906 69.582031 C 7.164062 69.582031 5.363281 71.382812 5.363281 73.597656 C 5.363281 74.167969 5.496094 74.734375 5.761719 75.296875 L 19.335938 104.089844 C 19.753906 104.949219 20.410156 105.695312 21.207031 106.210938 L 45.382812 121.777344 C 50.445312 125.035156 53.921875 130.304688 54.921875 136.238281 L 57.101562 149.207031 L 51.816406 150.097656 Z M 51.824219 150.101562 " fill-opacity="1" fill-rule="nonzero"/></g><path fill="#b5e5c8" d="M 77.695312 117.527344 L 72.339844 117.527344 C 72.339844 109.128906 66.6875 101.699219 58.59375 99.457031 L 38.257812 93.820312 C 37.941406 93.730469 37.707031 93.691406 37.511719 93.691406 C 36.03125 93.691406 34.832031 94.890625 34.832031 96.371094 C 34.832031 97.480469 35.503906 98.457031 36.554688 98.859375 L 54.019531 105.582031 L 52.097656 110.582031 L 34.628906 103.859375 C 31.5 102.65625 29.472656 99.71875 29.472656 96.371094 C 29.472656 91.9375 33.078125 88.332031 37.511719 88.332031 C 38.207031 88.332031 38.902344 88.4375 39.691406 88.65625 L 60.019531 94.289062 C 70.425781 97.175781 77.695312 106.726562 77.695312 117.527344 Z M 77.695312 117.527344 " fill-opacity="1" fill-rule="nonzero"/><path fill="#b5e5c8" d="M 111.894531 133.042969 L 115.867188 130.484375 L 118.765625 134.988281 L 114.792969 137.546875 Z M 111.894531 133.042969 " fill-opacity="1" fill-rule="nonzero"/><path fill="#b5e5c8" d="M 119.761719 127.988281 L 137.210938 116.5 L 140.15625 120.972656 L 122.707031 132.460938 Z M 119.761719 127.988281 " fill-opacity="1" fill-rule="nonzero"/><g clip-path="url(#c0d71e5a67)"><path fill="#b5e5c8" d="M 98.210938 150.101562 L 92.925781 149.210938 L 95.105469 136.242188 C 96.105469 130.308594 99.582031 125.035156 104.644531 121.78125 L 128.828125 106.210938 C 129.621094 105.695312 130.273438 104.945312 130.710938 104.054688 L 144.269531 75.296875 C 144.535156 74.738281 144.667969 74.167969 144.667969 73.601562 C 144.667969 71.386719 142.863281 69.582031 140.648438 69.582031 C 139.222656 69.582031 137.929688 70.339844 137.195312 71.609375 L 119.421875 100.457031 L 114.859375 97.648438 L 132.59375 68.863281 C 134.234375 66.027344 137.335938 64.226562 140.648438 64.226562 C 145.816406 64.226562 150.023438 68.433594 150.023438 73.601562 C 150.023438 74.964844 149.714844 76.304688 149.109375 77.585938 L 135.539062 106.378906 C 134.65625 108.175781 133.347656 109.664062 131.734375 110.710938 L 107.539062 126.289062 C 103.746094 128.730469 101.136719 132.683594 100.390625 137.132812 Z M 98.210938 150.101562 " fill-opacity="1" fill-rule="nonzero"/></g><path fill="#b5e5c8" d="M 77.695312 147.269531 L 72.339844 147.269531 L 72.339844 117.527344 C 72.339844 106.726562 79.609375 97.175781 90.015625 94.289062 L 110.351562 88.652344 C 111.117188 88.441406 111.832031 88.332031 112.523438 88.332031 C 116.953125 88.332031 120.558594 91.9375 120.558594 96.371094 C 120.558594 99.71875 118.535156 102.65625 115.398438 103.859375 L 98.058594 110.410156 L 96.164062 105.398438 L 113.492188 98.855469 C 114.527344 98.457031 115.199219 97.480469 115.199219 96.371094 C 115.199219 94.890625 114 93.691406 112.519531 93.691406 C 112.324219 93.691406 112.089844 93.730469 111.785156 93.816406 L 91.4375 99.457031 C 83.347656 101.699219 77.691406 109.125 77.691406 117.527344 L 77.691406 147.273438 Z M 77.695312 147.269531 " fill-opacity="1" fill-rule="nonzero"/></svg>