<svg xmlns="http://www.w3.org/2000/svg" xmlns:xlink="http://www.w3.org/1999/xlink" width="200" zoomAndPan="magnify" viewBox="0 0 150 149.999998" height="200" preserveAspectRatio="xMidYMid meet" version="1.0"><defs><clipPath id="75dd1d0b82"><path d="M 1 19 L 149 19 L 149 131.15625 L 1 131.15625 Z M 1 19 " clip-rule="nonzero"/></clipPath></defs><g clip-path="url(#75dd1d0b82)"><path fill="#2b7a57" d="M 145.558594 23.054688 C 141.164062 18.660156 134.023438 18.660156 129.628906 23.054688 C 129.628906 23.054688 61.128906 91.554688 49.292969 103.390625 C 48.832031 103.851562 48.210938 104.113281 47.5625 104.113281 C 46.910156 104.113281 46.289062 103.851562 45.828125 103.390625 C 39.832031 97.394531 20.304688 77.867188 20.304688 77.867188 C 15.90625 73.472656 8.769531 73.472656 4.375 77.867188 C -0.0234375 82.261719 -0.0234375 89.402344 4.375 93.792969 C 4.375 93.792969 30.78125 120.203125 37.863281 127.285156 C 40.4375 129.855469 43.925781 131.300781 47.5625 131.300781 C 51.199219 131.300781 54.683594 129.855469 57.257812 127.285156 C 69.746094 114.796875 145.558594 38.984375 145.558594 38.984375 C 149.953125 34.585938 149.953125 27.453125 145.558594 23.054688 Z M 145.558594 23.054688 " fill-opacity="1" fill-rule="evenodd"/></g></svg>