<svg xmlns="http://www.w3.org/2000/svg" xmlns:xlink="http://www.w3.org/1999/xlink" width="200" zoomAndPan="magnify" viewBox="0 0 150 149.999998" height="200" preserveAspectRatio="xMidYMid meet" version="1.0"><path fill="#2b7a57" d="M 51.453125 138.976562 C 50.734375 138.976562 50.066406 138.523438 49.824219 137.804688 C 27.664062 71.625 31.261719 47.511719 38.183594 38.9375 C 40.589844 35.953125 43.261719 34.992188 45 34.695312 C 45.824219 22.691406 55.855469 13.179688 68.066406 13.179688 L 81.933594 13.179688 C 94.144531 13.179688 104.171875 22.691406 105 34.695312 C 106.734375 34.992188 109.410156 35.953125 111.816406 38.9375 C 118.738281 47.511719 122.332031 71.625 100.175781 137.804688 C 99.871094 138.703125 98.902344 139.1875 98 138.886719 C 97.101562 138.585938 96.613281 137.613281 96.914062 136.714844 C 119.621094 68.914062 114.386719 47.785156 109.25 41.222656 C 106.566406 37.800781 103.628906 37.996094 103.5 38.007812 C 103.019531 38.058594 102.542969 37.902344 102.179688 37.578125 C 101.816406 37.253906 101.621094 36.785156 101.621094 36.296875 C 101.621094 25.445312 92.789062 16.613281 81.933594 16.613281 L 68.066406 16.613281 C 57.207031 16.613281 48.378906 25.445312 48.378906 36.296875 C 48.378906 36.785156 48.171875 37.25 47.808594 37.578125 C 47.441406 37.902344 46.960938 38.058594 46.472656 38.003906 C 46.371094 37.996094 43.433594 37.796875 40.75 41.222656 C 35.613281 47.785156 30.378906 68.914062 53.082031 136.714844 C 53.382812 137.613281 52.898438 138.585938 52 138.886719 C 51.816406 138.949219 51.636719 138.976562 51.453125 138.976562 Z M 51.453125 138.976562 " fill-opacity="1" fill-rule="evenodd"/><path fill="#2b7a57" d="M 101.246094 28.769531 L 48.757812 28.769531 C 47.808594 28.769531 47.039062 28.003906 47.039062 27.054688 C 47.039062 26.105469 47.808594 25.335938 48.757812 25.335938 L 101.246094 25.335938 C 102.191406 25.335938 102.960938 26.105469 102.960938 27.054688 C 102.960938 28.003906 102.191406 28.769531 101.246094 28.769531 Z M 101.246094 28.769531 " fill-opacity="1" fill-rule="evenodd"/><path fill="#2b7a57" d="M 103.339844 38.015625 L 46.664062 38.015625 C 45.714844 38.015625 44.949219 37.246094 44.949219 36.296875 C 44.949219 35.347656 45.714844 34.582031 46.664062 34.582031 L 103.339844 34.582031 C 104.289062 34.582031 105.058594 35.351562 105.058594 36.296875 C 105.058594 37.246094 104.289062 38.015625 103.339844 38.015625 Z M 103.339844 38.015625 " fill-opacity="1" fill-rule="evenodd"/><path fill="#2b7a57" d="M 75.003906 3.433594 C 72.316406 3.433594 70.128906 5.621094 70.128906 8.308594 C 70.128906 10.996094 72.316406 13.183594 75.003906 13.183594 C 77.691406 13.183594 79.878906 10.996094 79.878906 8.308594 C 79.878906 5.621094 77.6875 3.433594 75.003906 3.433594 Z M 75.003906 16.617188 C 70.421875 16.617188 66.691406 12.890625 66.691406 8.308594 C 66.691406 3.726562 70.421875 0 75.003906 0 C 79.585938 0 83.3125 3.726562 83.3125 8.308594 C 83.3125 12.890625 79.585938 16.617188 75.003906 16.617188 Z M 75.003906 16.617188 " fill-opacity="1" fill-rule="evenodd"/><path fill="#2b7a57" d="M 64.730469 86.777344 L 75.003906 97.050781 L 85.273438 86.777344 L 75.003906 76.507812 Z M 75.003906 101.195312 C 74.5625 101.195312 74.125 101.03125 73.785156 100.695312 L 61.085938 87.992188 C 60.765625 87.671875 60.582031 87.234375 60.582031 86.777344 C 60.582031 86.324219 60.765625 85.886719 61.085938 85.5625 L 73.785156 72.863281 C 74.457031 72.191406 75.546875 72.191406 76.21875 72.863281 L 88.917969 85.5625 C 89.242188 85.886719 89.417969 86.324219 89.417969 86.777344 C 89.421875 87.234375 89.242188 87.671875 88.917969 87.992188 L 76.21875 100.695312 C 75.882812 101.027344 75.441406 101.195312 75.003906 101.195312 Z M 75.003906 101.195312 " fill-opacity="1" fill-rule="evenodd"/><path fill="#2b7a57" d="M 103.910156 122.140625 L 46.09375 122.140625 C 45.148438 122.140625 44.378906 121.371094 44.378906 120.425781 C 44.378906 119.476562 45.148438 118.707031 46.09375 118.707031 L 103.910156 118.707031 C 104.859375 118.707031 105.628906 119.476562 105.628906 120.425781 C 105.628906 121.371094 104.859375 122.140625 103.910156 122.140625 Z M 103.910156 122.140625 " fill-opacity="1" fill-rule="evenodd"/><path fill="#2b7a57" d="M 115.027344 54.847656 L 34.976562 54.847656 C 34.027344 54.847656 33.257812 54.082031 33.257812 53.132812 C 33.257812 52.183594 34.027344 51.414062 34.976562 51.414062 L 115.027344 51.414062 C 115.976562 51.414062 116.746094 52.183594 116.746094 53.132812 C 116.746094 54.078125 115.976562 54.847656 115.027344 54.847656 Z M 115.027344 54.847656 " fill-opacity="1" fill-rule="evenodd"/><path fill="#2b7a57" d="M 38.871094 146.5625 L 111.132812 146.5625 C 110.371094 142.257812 106.601562 138.976562 102.082031 138.976562 L 47.917969 138.976562 C 43.398438 138.976562 39.632812 142.257812 38.871094 146.5625 Z M 112.992188 149.996094 L 37.011719 149.996094 C 36.066406 149.996094 35.296875 149.226562 35.296875 148.277344 L 35.296875 148.164062 C 35.296875 141.203125 40.957031 135.542969 47.921875 135.542969 L 102.082031 135.542969 C 109.042969 135.542969 114.707031 141.203125 114.707031 148.164062 L 114.707031 148.167969 C 114.710938 148.203125 114.710938 148.242188 114.710938 148.277344 C 114.710938 149.226562 113.941406 149.996094 112.992188 149.996094 Z M 112.992188 149.996094 " fill-opacity="1" fill-rule="evenodd"/></svg>