<svg xmlns="http://www.w3.org/2000/svg" xmlns:xlink="http://www.w3.org/1999/xlink" width="200" zoomAndPan="magnify" viewBox="0 0 150 149.999998" height="200" preserveAspectRatio="xMidYMid meet" version="1.0"><defs><clipPath id="0fad34f467"><path d="M 108 95 L 150 95 L 150 127.59375 L 108 127.59375 Z M 108 95 " clip-rule="nonzero"/></clipPath><clipPath id="e2b9b85da2"><path d="M 14 22.59375 L 39 22.59375 L 39 94 L 14 94 Z M 14 22.59375 " clip-rule="nonzero"/></clipPath></defs><path fill="#b5e5c8" d="M 107.421875 117.625 C 94.632812 121.554688 81.449219 120.570312 67.867188 114.675781 L 67.832031 114.660156 C 63.230469 112.515625 58.621094 109.183594 54.003906 104.667969 L 54.144531 104.789062 C 52.347656 103.441406 47.5 97.703125 39.605469 87.578125 L 39.660156 87.648438 C 37.335938 85.015625 35.457031 83.070312 34.023438 81.808594 L 34.050781 81.832031 C 31.8125 79.953125 28.289062 77.800781 23.480469 75.375 C 23.292969 75.277344 23.125 75.140625 22.996094 74.972656 C 22.839844 74.777344 22.714844 74.574219 22.617188 74.367188 C 22.199219 73.480469 22.277344 72.640625 22.84375 71.84375 C 23.027344 71.589844 23.257812 71.355469 23.539062 71.136719 C 23.707031 71.003906 23.894531 70.878906 24.101562 70.757812 C 24.144531 70.734375 24.1875 70.710938 24.234375 70.691406 C 30.867188 67.6875 35.878906 64.960938 39.265625 62.511719 C 39.320312 62.472656 39.378906 62.433594 39.4375 62.402344 C 42.0625 61.023438 44.988281 60.171875 48.214844 59.847656 C 48.269531 59.84375 48.328125 59.839844 48.382812 59.839844 C 58.015625 60.003906 65.5 63.027344 70.835938 68.90625 C 71.367188 69.492188 71.324219 70.398438 70.738281 70.933594 C 70.148438 71.464844 69.242188 71.421875 68.710938 70.832031 C 63.929688 65.566406 57.140625 62.859375 48.335938 62.710938 L 48.5 62.703125 C 45.644531 62.988281 43.066406 63.734375 40.773438 64.941406 L 40.945312 64.835938 C 37.402344 67.398438 32.226562 70.222656 25.417969 73.304688 L 25.546875 73.234375 C 25.449219 73.292969 25.367188 73.347656 25.300781 73.402344 L 25.300781 73.398438 C 25.238281 73.449219 25.195312 73.484375 25.179688 73.511719 C 25.261719 73.394531 25.273438 73.273438 25.210938 73.140625 C 25.21875 73.160156 25.234375 73.183594 25.257812 73.214844 L 24.773438 72.8125 C 29.777344 75.339844 33.484375 77.613281 35.894531 79.632812 L 35.917969 79.65625 C 37.441406 80.996094 39.40625 83.027344 41.8125 85.75 C 41.832031 85.769531 41.847656 85.792969 41.867188 85.816406 C 49.605469 95.738281 54.273438 101.296875 55.867188 102.492188 C 55.914062 102.53125 55.960938 102.570312 56.007812 102.617188 C 60.394531 106.90625 64.738281 110.054688 69.042969 112.0625 L 69.007812 112.046875 C 81.941406 117.660156 94.464844 118.605469 106.578125 114.882812 C 107.335938 114.648438 108.140625 115.074219 108.371094 115.832031 C 108.605469 116.589844 108.179688 117.390625 107.421875 117.625 Z M 107.421875 117.625 " fill-opacity="1" fill-rule="nonzero"/><path fill="#b5e5c8" d="M 70.8125 84.082031 C 86.746094 60.511719 99.453125 46.535156 108.9375 42.144531 C 109.402344 41.929688 109.941406 41.976562 110.359375 42.269531 C 110.777344 42.558594 111.011719 43.046875 110.972656 43.554688 C 110.445312 50.394531 110.398438 54.285156 110.835938 55.226562 L 110.839844 55.230469 L 110.839844 55.234375 C 110.890625 55.339844 110.925781 55.449219 110.945312 55.558594 C 111.242188 57.058594 111.839844 58.683594 112.746094 60.429688 L 112.753906 60.449219 C 113.4375 61.820312 115.070312 64.195312 117.648438 67.582031 C 117.671875 67.609375 117.691406 67.636719 117.707031 67.664062 C 118.269531 68.515625 118.691406 69.363281 118.972656 70.203125 L 118.984375 70.242188 C 119.710938 72.609375 119.4375 75.28125 118.164062 78.257812 C 118.148438 78.296875 118.128906 78.335938 118.109375 78.375 C 110.867188 91.882812 100.355469 98.734375 86.578125 98.933594 C 85.785156 98.945312 85.136719 98.3125 85.125 97.519531 C 85.113281 96.726562 85.746094 96.074219 86.539062 96.066406 C 99.191406 95.882812 108.871094 89.535156 115.582031 77.019531 L 115.527344 77.132812 C 116.527344 74.796875 116.765625 72.78125 116.242188 71.078125 L 116.253906 71.117188 C 116.050781 70.511719 115.738281 69.886719 115.3125 69.238281 L 115.371094 69.320312 C 112.679688 65.792969 110.953125 63.261719 110.1875 61.730469 L 110.199219 61.75 C 109.167969 59.761719 108.480469 57.878906 108.132812 56.113281 L 108.238281 56.4375 L 108.234375 56.433594 C 107.589844 55.039062 107.546875 50.671875 108.109375 43.335938 L 110.144531 44.746094 C 101.140625 48.914062 88.824219 62.5625 73.1875 85.6875 C 72.746094 86.34375 71.855469 86.515625 71.199219 86.074219 C 70.542969 85.628906 70.371094 84.738281 70.8125 84.082031 Z M 70.8125 84.082031 " fill-opacity="1" fill-rule="nonzero"/><g clip-path="url(#0fad34f467)"><path fill="#b5e5c8" d="M 110.4375 95.59375 C 115.390625 96.679688 118.863281 97.273438 120.855469 97.371094 C 121.351562 97.394531 121.800781 97.675781 122.042969 98.109375 C 122.28125 98.542969 122.28125 99.070312 122.039062 99.503906 L 122.035156 99.503906 C 122.503906 98.675781 122.324219 98.027344 121.496094 97.5625 L 121.492188 97.5625 C 121.359375 97.484375 121.234375 97.4375 121.113281 97.417969 L 121.117188 97.417969 C 121.835938 97.539062 127.292969 97.773438 137.480469 98.125 L 137.527344 98.125 C 139.257812 98.242188 140.699219 98.410156 141.859375 98.628906 L 141.808594 98.621094 C 146.878906 99.382812 149.53125 101.046875 149.769531 103.605469 L 149.773438 103.636719 C 149.902344 105.519531 148.882812 107.59375 146.71875 109.855469 C 146.699219 109.875 146.679688 109.894531 146.660156 109.914062 C 145.230469 111.25 143.074219 112.332031 140.195312 113.15625 L 141.234375 111.742188 C 141.277344 113.507812 141.121094 114.761719 140.753906 115.496094 C 140.664062 115.679688 140.558594 115.839844 140.441406 115.984375 L 140.703125 115.507812 C 140.648438 115.671875 140.570312 115.839844 140.46875 116.007812 C 140.039062 116.703125 138.859375 117.765625 136.921875 119.195312 L 137.058594 119.078125 C 137.03125 119.105469 137.011719 119.128906 137 119.144531 C 137.011719 119.125 137.023438 119.097656 137.035156 119.0625 C 136.902344 119.515625 136.558594 119.871094 136.113281 120.023438 C 135.667969 120.171875 135.175781 120.09375 134.800781 119.8125 L 134.796875 119.8125 C 135.535156 120.363281 136.183594 120.265625 136.738281 119.523438 L 136.738281 119.519531 C 136.898438 119.308594 136.980469 119.097656 136.988281 118.894531 C 136.976562 119.261719 137.167969 120.433594 137.558594 122.417969 C 137.574219 122.507812 137.585938 122.597656 137.585938 122.691406 C 137.585938 123.601562 137.429688 124.359375 137.113281 124.964844 L 137.144531 124.898438 C 136.484375 126.34375 135.058594 127.175781 132.863281 127.394531 C 132.816406 127.398438 132.769531 127.402344 132.722656 127.402344 C 128.617188 127.398438 124.257812 125.476562 119.652344 121.644531 L 119.878906 121.800781 C 117.546875 120.519531 114.160156 115.703125 109.722656 107.355469 C 109.351562 106.652344 109.617188 105.785156 110.316406 105.414062 C 111.015625 105.042969 111.886719 105.308594 112.257812 106.007812 C 116.425781 113.855469 119.425781 118.28125 121.257812 119.285156 C 121.339844 119.332031 121.414062 119.382812 121.484375 119.441406 C 125.5625 122.832031 129.308594 124.53125 132.726562 124.53125 L 132.582031 124.539062 C 133.679688 124.429688 134.332031 124.152344 134.535156 123.707031 C 134.546875 123.683594 134.558594 123.660156 134.570312 123.640625 C 134.667969 123.449219 134.71875 123.136719 134.714844 122.695312 L 134.742188 122.96875 C 134.3125 120.78125 134.105469 119.394531 134.121094 118.816406 C 134.132812 118.414062 134.238281 118.078125 134.441406 117.808594 L 134.441406 117.804688 C 135.03125 117.015625 135.722656 116.917969 136.515625 117.511719 L 134.28125 118.261719 C 134.351562 118.011719 134.464844 117.769531 134.621094 117.542969 C 134.746094 117.355469 134.898438 117.175781 135.078125 117.003906 C 135.125 116.960938 135.167969 116.921875 135.21875 116.886719 C 136.855469 115.675781 137.792969 114.882812 138.023438 114.503906 C 138.007812 114.53125 137.988281 114.570312 137.972656 114.625 C 138.03125 114.449219 138.117188 114.289062 138.234375 114.148438 C 138.210938 114.179688 138.195312 114.203125 138.183594 114.222656 C 138.339844 113.910156 138.398438 113.109375 138.367188 111.816406 C 138.347656 111.164062 138.777344 110.582031 139.402344 110.402344 C 141.84375 109.703125 143.609375 108.839844 144.703125 107.816406 L 144.644531 107.875 C 146.226562 106.222656 146.980469 104.875 146.910156 103.835938 L 146.914062 103.867188 C 146.8125 102.800781 144.96875 101.996094 141.378906 101.457031 L 141.328125 101.449219 C 140.28125 101.25 138.949219 101.097656 137.335938 100.988281 L 137.382812 100.992188 C 127.070312 100.636719 121.492188 100.386719 120.648438 100.25 L 120.652344 100.25 C 120.4375 100.214844 120.25 100.152344 120.089844 100.0625 C 119.25 99.589844 119.066406 98.933594 119.535156 98.097656 L 120.714844 100.234375 C 118.5625 100.128906 114.933594 99.515625 109.824219 98.398438 C 109.050781 98.226562 108.5625 97.460938 108.730469 96.6875 C 108.898438 95.914062 109.664062 95.425781 110.4375 95.59375 Z M 110.4375 95.59375 " fill-opacity="1" fill-rule="nonzero"/></g><g clip-path="url(#e2b9b85da2)"><path fill="#b5e5c8" d="M 21.839844 92.464844 C 15.414062 78.898438 13.289062 66.898438 15.46875 56.46875 L 15.453125 56.546875 C 15.925781 53.425781 17.71875 48.304688 20.835938 41.183594 L 20.765625 41.382812 C 20.902344 40.882812 20.972656 40.480469 20.980469 40.183594 L 20.984375 40.332031 C 20.78125 37.917969 20.796875 36.128906 21.023438 34.964844 L 21.011719 35.054688 C 21.167969 33.820312 21.726562 32.5 22.679688 31.097656 L 22.554688 31.324219 C 23.589844 28.972656 27.597656 26.25 34.582031 23.15625 L 34.558594 23.167969 C 34.800781 23.054688 35.035156 22.976562 35.265625 22.925781 C 36.316406 22.707031 37.148438 23.035156 37.761719 23.917969 C 37.867188 24.066406 37.957031 24.226562 38.039062 24.402344 C 38.375 25.136719 38.546875 26.191406 38.546875 27.570312 C 38.546875 27.652344 38.539062 27.730469 38.527344 27.8125 C 36.957031 37.023438 31.863281 41.863281 23.246094 42.335938 C 22.453125 42.378906 21.777344 41.773438 21.734375 40.980469 C 21.691406 40.191406 22.296875 39.515625 23.089844 39.472656 C 30.183594 39.082031 34.386719 35.035156 35.699219 27.328125 L 35.679688 27.570312 C 35.679688 26.613281 35.597656 25.957031 35.433594 25.605469 C 35.421875 25.582031 35.414062 25.566406 35.40625 25.554688 C 35.519531 25.714844 35.667969 25.773438 35.859375 25.734375 C 35.835938 25.738281 35.804688 25.75 35.761719 25.769531 L 35.742188 25.78125 C 29.4375 28.570312 25.917969 30.804688 25.179688 32.480469 C 25.144531 32.558594 25.101562 32.636719 25.050781 32.707031 C 24.355469 33.734375 23.957031 34.640625 23.855469 35.421875 C 23.851562 35.453125 23.84375 35.484375 23.839844 35.515625 C 23.660156 36.421875 23.664062 37.945312 23.84375 40.089844 C 23.847656 40.140625 23.847656 40.191406 23.847656 40.242188 C 23.835938 40.773438 23.730469 41.40625 23.535156 42.136719 C 23.515625 42.203125 23.492188 42.269531 23.464844 42.335938 C 20.445312 49.222656 18.722656 54.101562 18.289062 56.972656 C 18.285156 57 18.28125 57.027344 18.277344 57.054688 C 16.230469 66.855469 18.28125 78.25 24.429688 91.234375 C 24.769531 91.953125 24.464844 92.808594 23.746094 93.144531 C 23.03125 93.484375 22.175781 93.179688 21.839844 92.464844 Z M 21.839844 92.464844 " fill-opacity="1" fill-rule="nonzero"/></g><path fill="#b5e5c8" d="M 14.535156 56.316406 C 8.585938 52.699219 5.234375 50.253906 4.488281 48.984375 C 4.378906 48.796875 4.296875 48.605469 4.242188 48.417969 L 4.515625 48.945312 C 3.160156 47.28125 2.191406 45.707031 1.605469 44.21875 L 1.613281 44.242188 C 1.105469 43.011719 0.636719 41.652344 0.210938 40.160156 L 0.230469 40.226562 C 0.210938 40.164062 0.191406 40.101562 0.175781 40.039062 C 0.152344 39.953125 0.132812 39.863281 0.117188 39.769531 C 0.0234375 39.1875 0.105469 38.589844 0.363281 37.984375 C 0.433594 37.820312 0.53125 37.671875 0.65625 37.546875 C 2.316406 35.847656 4.542969 34.914062 7.335938 34.753906 C 7.359375 34.75 7.386719 34.75 7.414062 34.75 C 10.109375 34.738281 12.445312 35.679688 14.421875 37.570312 L 14.449219 37.59375 C 17.960938 41.132812 19.019531 46.511719 17.625 53.734375 C 17.472656 54.511719 16.722656 55.019531 15.945312 54.871094 C 15.164062 54.71875 14.65625 53.96875 14.808594 53.191406 C 16.011719 46.960938 15.214844 42.433594 12.414062 39.617188 L 12.4375 39.640625 C 11.023438 38.285156 9.351562 37.609375 7.425781 37.617188 L 7.503906 37.613281 C 5.449219 37.734375 3.851562 38.378906 2.707031 39.550781 L 3 39.113281 C 2.960938 39.207031 2.941406 39.273438 2.949219 39.308594 C 2.953125 39.332031 2.960938 39.351562 2.96875 39.375 C 3.363281 40.757812 3.796875 42.015625 4.261719 43.144531 L 4.273438 43.167969 C 4.75 44.378906 5.570312 45.699219 6.738281 47.132812 C 6.867188 47.289062 6.957031 47.46875 7.011719 47.660156 C 6.996094 47.605469 6.976562 47.5625 6.960938 47.53125 C 7.464844 48.386719 10.484375 50.5 16.023438 53.867188 C 16.703125 54.277344 16.917969 55.160156 16.503906 55.835938 C 16.09375 56.511719 15.210938 56.726562 14.535156 56.316406 Z M 14.535156 56.316406 " fill-opacity="1" fill-rule="nonzero"/><path fill="#b5e5c8" d="M 15.617188 66.175781 C 16.339844 64.890625 17.535156 63.632812 19.210938 62.402344 L 19.183594 62.421875 C 20.695312 61.253906 23.703125 59.371094 28.199219 56.773438 L 28.140625 56.808594 C 29.207031 56.121094 29.941406 55.597656 30.34375 55.242188 L 30.371094 55.21875 C 31.28125 54.453125 31.710938 53.882812 31.65625 53.503906 L 31.664062 53.539062 C 31.4375 52.183594 30.46875 51.269531 28.746094 50.789062 C 28.722656 50.78125 28.695312 50.773438 28.671875 50.765625 C 27.160156 50.253906 25.671875 50.402344 24.195312 51.21875 C 24.171875 51.230469 24.144531 51.246094 24.117188 51.257812 C 22.75 51.902344 21.625 52.941406 20.730469 54.371094 L 20.78125 54.28125 C 19.523438 56.671875 18.582031 59.191406 17.953125 61.847656 C 17.769531 62.617188 17 63.09375 16.226562 62.914062 C 15.457031 62.730469 14.980469 61.957031 15.160156 61.1875 C 15.847656 58.296875 16.875 55.546875 18.246094 52.945312 C 18.261719 52.914062 18.277344 52.882812 18.296875 52.855469 C 19.488281 50.945312 21.019531 49.550781 22.890625 48.664062 L 22.8125 48.707031 C 25.023438 47.484375 27.285156 47.265625 29.59375 48.050781 L 29.515625 48.027344 C 32.410156 48.832031 34.070312 50.515625 34.492188 53.070312 L 34.496094 53.105469 C 34.699219 54.53125 33.9375 55.96875 32.214844 57.414062 L 32.242188 57.390625 C 31.730469 57.84375 30.882812 58.453125 29.695312 59.21875 C 29.675781 59.230469 29.65625 59.242188 29.636719 59.253906 C 25.246094 61.792969 22.347656 63.605469 20.933594 64.695312 L 20.90625 64.714844 C 19.566406 65.699219 18.636719 66.652344 18.121094 67.578125 C 17.734375 68.265625 16.859375 68.515625 16.171875 68.128906 C 15.480469 67.742188 15.230469 66.867188 15.617188 66.175781 Z M 15.617188 66.175781 " fill-opacity="1" fill-rule="nonzero"/></svg>