<svg xmlns="http://www.w3.org/2000/svg" xmlns:xlink="http://www.w3.org/1999/xlink" width="200" zoomAndPan="magnify" viewBox="0 0 150 149.999998" height="200" preserveAspectRatio="xMidYMid meet" version="1.0"><defs><clipPath id="0c563949f9"><path d="M 16.96875 0 L 133 0 L 133 150 L 16.96875 150 Z M 16.96875 0 " clip-rule="nonzero"/></clipPath></defs><path fill="#b5e5c8" d="M 99.671875 26.179688 L 118.375 26.179688 C 122.179688 26.179688 125.265625 29.269531 125.265625 33.074219 L 125.265625 71.640625 C 121.5 70.785156 118.632812 69.992188 114.960938 68.761719 L 114.960938 62.027344 C 114.960938 56.96875 110.839844 52.851562 105.78125 52.851562 L 99.671875 52.851562 Z M 105.78125 56.171875 L 26.757812 56.171875 C 23.523438 56.171875 20.890625 58.792969 20.890625 62.027344 L 20.890625 109.707031 C 20.890625 112.941406 23.523438 115.5625 26.757812 115.5625 L 64.054688 115.5625 L 63.996094 114.03125 L 63.996094 96.605469 C 63.621094 89.15625 63.792969 81.683594 63.996094 74.226562 C 64.015625 73.425781 64.605469 72.75 65.402344 72.628906 C 76.339844 70.945312 87.730469 67.097656 97.121094 61.226562 C 97.664062 60.886719 98.347656 60.886719 98.890625 61.226562 C 103.132812 63.882812 107.027344 65.703125 111.648438 67.546875 L 111.648438 62.027344 C 111.648438 58.792969 109.015625 56.171875 105.78125 56.171875 Z M 108.136719 95.234375 C 109.59375 95.234375 110.792969 96.429688 110.792969 97.886719 L 110.792969 118.136719 C 110.792969 119.597656 109.59375 120.785156 108.136719 120.785156 L 87.890625 120.785156 C 86.425781 120.785156 85.238281 119.605469 85.238281 118.136719 L 85.238281 97.886719 C 85.238281 96.417969 86.425781 95.234375 87.890625 95.234375 Z M 30.636719 12.253906 L 36.609375 6.285156 L 36.609375 11.539062 C 36.609375 11.929688 36.285156 12.253906 35.890625 12.253906 Z M 30.636719 12.253906 " fill-opacity="1" fill-rule="evenodd"/><g clip-path="url(#0c563949f9)"><path fill="#35ae74" d="M 110.1875 97.886719 C 110.1875 96.761719 109.257812 95.839844 108.136719 95.839844 L 87.890625 95.839844 C 86.753906 95.839844 85.839844 96.761719 85.839844 97.886719 L 85.839844 118.136719 C 85.839844 119.269531 86.753906 120.183594 87.890625 120.183594 L 108.136719 120.183594 C 109.257812 120.183594 110.1875 119.269531 110.1875 118.136719 Z M 92.734375 91.3125 L 103.277344 91.3125 L 103.277344 84.789062 C 103.277344 81.886719 100.921875 79.523438 98.015625 79.523438 C 95.109375 79.523438 92.734375 81.886719 92.734375 84.789062 Z M 114.707031 97.886719 L 114.707031 118.136719 C 114.707031 121.765625 111.765625 124.710938 108.136719 124.710938 L 87.890625 124.710938 C 84.265625 124.710938 81.300781 121.765625 81.300781 118.136719 L 81.300781 97.886719 C 81.300781 94.261719 84.265625 91.3125 87.890625 91.3125 L 88.214844 91.3125 L 88.214844 84.789062 C 88.214844 79.390625 92.601562 74.996094 98.015625 74.996094 C 103.410156 74.996094 107.796875 79.390625 107.796875 84.789062 L 107.796875 91.3125 L 108.136719 91.3125 C 111.765625 91.3125 114.707031 94.261719 114.707031 97.886719 Z M 128.15625 76.199219 C 128.324219 83.386719 128.441406 89.953125 128.097656 96.464844 C 128.097656 96.503906 128.097656 96.542969 128.097656 96.578125 L 128.097656 114.03125 C 128.097656 120.550781 125.117188 126.144531 119.722656 129.789062 L 98.015625 144.421875 L 76.308594 129.789062 C 70.894531 126.144531 67.914062 120.550781 67.914062 114.03125 L 67.914062 96.578125 C 67.914062 96.542969 67.914062 96.503906 67.914062 96.464844 C 67.589844 89.964844 67.683594 83.394531 67.875 76.199219 C 78.476562 74.34375 89.261719 70.535156 98.015625 65.289062 C 106.796875 70.550781 117.535156 74.339844 128.15625 76.199219 Z M 63.410156 114.957031 L 26.757812 114.957031 C 23.851562 114.957031 21.496094 112.601562 21.496094 109.707031 L 21.496094 62.027344 C 21.496094 59.132812 23.851562 56.773438 26.757812 56.773438 L 105.78125 56.773438 C 108.6875 56.773438 111.042969 59.132812 111.042969 62.027344 L 111.042969 66.65625 C 106.75 64.941406 102.761719 62.941406 99.210938 60.714844 C 98.472656 60.253906 97.539062 60.253906 96.800781 60.714844 C 87.75 66.375 76.441406 70.316406 65.3125 72.03125 C 64.226562 72.199219 63.429688 73.117188 63.394531 74.210938 C 63.183594 82.21875 63.03125 89.4375 63.394531 96.636719 L 63.394531 114.03125 C 63.390625 114.339844 63.390625 114.648438 63.410156 114.957031 Z M 35.890625 11.652344 C 35.949219 11.652344 36.003906 11.597656 36.003906 11.539062 L 36.003906 7.742188 L 32.09375 11.652344 Z M 95.640625 4.542969 C 95.699219 4.542969 95.753906 4.601562 95.753906 4.660156 L 95.753906 52.246094 L 28.902344 52.246094 L 28.902344 16.179688 L 35.890625 16.179688 C 38.457031 16.179688 40.542969 14.097656 40.542969 11.539062 L 40.542969 4.542969 Z M 100.273438 26.78125 L 100.273438 52.246094 L 105.78125 52.246094 C 111.175781 52.246094 115.5625 56.636719 115.5625 62.027344 L 115.5625 68.324219 C 118.605469 69.347656 121.527344 70.171875 124.660156 70.882812 L 124.660156 33.074219 C 124.660156 29.605469 121.851562 26.78125 118.375 26.78125 Z M 132.636719 96.636719 L 132.636719 114.03125 C 132.636719 122.101562 128.953125 129.03125 122.25 133.542969 L 99.269531 149.03125 C 97.816406 150.011719 96.65625 148.984375 95.582031 148.242188 L 73.761719 133.542969 C 68.632812 130.082031 65.273438 125.207031 64 119.484375 L 26.757812 119.484375 C 21.363281 119.484375 16.976562 115.097656 16.976562 109.707031 L 16.976562 62.027344 C 16.976562 57.453125 20.128906 53.605469 24.363281 52.542969 L 24.363281 13.914062 C 24.363281 13.316406 24.609375 12.742188 25.027344 12.316406 L 36.671875 0.679688 C 37.089844 0.253906 37.675781 0.015625 38.265625 0.015625 L 95.640625 0.015625 C 98.1875 0.015625 100.273438 2.097656 100.273438 4.660156 L 100.273438 22.253906 L 118.375 22.253906 C 124.335938 22.253906 129.199219 27.109375 129.199219 33.074219 L 129.199219 71.785156 C 129.695312 71.871094 130.207031 71.957031 130.699219 72.03125 C 131.78125 72.199219 132.597656 73.117188 132.617188 74.210938 C 132.847656 82.210938 133 89.421875 132.636719 96.636719 Z M 85.421875 38.71875 L 39.234375 38.71875 C 37.980469 38.71875 36.972656 39.730469 36.972656 40.980469 C 36.972656 42.230469 37.980469 43.242188 39.234375 43.242188 L 85.421875 43.242188 C 86.675781 43.242188 87.683594 42.230469 87.683594 40.980469 C 87.683594 39.730469 86.675781 38.71875 85.421875 38.71875 Z M 85.421875 25.1875 L 39.234375 25.1875 C 37.980469 25.1875 36.972656 26.195312 36.972656 27.449219 C 36.972656 28.699219 37.980469 29.714844 39.234375 29.714844 L 85.421875 29.714844 C 86.675781 29.714844 87.683594 28.699219 87.683594 27.449219 C 87.683594 26.195312 86.675781 25.1875 85.421875 25.1875 Z M 85.421875 25.1875 " fill-opacity="1" fill-rule="evenodd"/></g></svg>