<svg xmlns="http://www.w3.org/2000/svg" xmlns:xlink="http://www.w3.org/1999/xlink" width="1080" zoomAndPan="magnify" viewBox="0 0 810 809.999993" height="1080" preserveAspectRatio="xMidYMid meet" version="1.0"><defs><clipPath id="153604e44d"><path d="M 103.273438 0 L 728.773438 0 L 728.773438 809 L 103.273438 809 Z M 103.273438 0 " clip-rule="nonzero"/></clipPath><clipPath id="5124279f7e"><path d="M 416 0 L 728.773438 0 L 728.773438 809 L 416 809 Z M 416 0 " clip-rule="nonzero"/></clipPath></defs><g clip-path="url(#153604e44d)"><path fill="#00d8a4" d="M 405.007812 806.53125 C 258.097656 742.386719 103.273438 645.320312 103.273438 465.351562 L 103.273438 158.5625 C 103.273438 144.394531 113.847656 132.636719 127.921875 131.152344 C 212.421875 122.191406 337.175781 71.492188 395.949219 8.921875 C 401.34375 3.164062 408.136719 0.234375 416.023438 0.234375 C 423.914062 0.234375 430.707031 3.164062 436.101562 8.921875 C 494.871094 71.492188 619.625 122.191406 704.128906 131.152344 C 718.203125 132.636719 728.773438 144.394531 728.773438 158.5625 L 728.773438 465.351562 C 728.773438 645.320312 573.949219 742.386719 427.042969 806.53125 C 419.761719 809.722656 412.289062 809.722656 405.007812 806.53125 Z M 405.007812 806.53125 " fill-opacity="1" fill-rule="evenodd"/></g><g clip-path="url(#5124279f7e)"><path fill="#00c295" d="M 728.773438 465.351562 L 728.773438 158.5625 C 728.773438 144.394531 718.203125 132.636719 704.128906 131.152344 C 619.625 122.191406 494.871094 71.492188 436.101562 8.921875 C 430.707031 3.164062 423.914062 0.234375 416.023438 0.234375 L 416.023438 808.929688 C 419.71875 808.929688 423.410156 808.132812 427.042969 806.53125 C 573.949219 742.386719 728.773438 645.320312 728.773438 465.351562 Z M 728.773438 465.351562 " fill-opacity="1" fill-rule="evenodd"/></g><path fill="#fefefe" d="M 381.496094 205.523438 L 450.539062 205.523438 C 466.113281 205.523438 478.863281 218.277344 478.863281 233.859375 L 478.863281 575.300781 C 478.863281 590.882812 466.113281 603.636719 450.539062 603.636719 L 381.496094 603.636719 C 365.921875 603.636719 353.171875 590.882812 353.171875 575.300781 L 353.171875 233.859375 C 353.171875 218.277344 365.921875 205.523438 381.496094 205.523438 Z M 381.496094 205.523438 " fill-opacity="1" fill-rule="evenodd"/><path fill="#fefefe" d="M 615.011719 370.042969 L 615.011719 439.105469 C 615.011719 454.703125 602.261719 467.441406 586.683594 467.441406 L 245.363281 467.441406 C 229.789062 467.441406 217.039062 454.703125 217.039062 439.105469 L 217.039062 370.042969 C 217.039062 354.460938 229.789062 341.707031 245.363281 341.707031 L 586.683594 341.707031 C 602.261719 341.707031 615.011719 354.460938 615.011719 370.042969 Z M 615.011719 370.042969 " fill-opacity="1" fill-rule="evenodd"/></svg>